[img]http://img28.imageshack.us/img28/7320/502238538.jpg[/img]



[img]http://leetleech.org/images/48874973695367351744.png[/img]


Format                           : AVI
Format/Info                      : Audio Video Interleave
File size                        : 700 MiB
Duration                         : 2h 3mn
Overall bit rate                 : 789 Kbps
Writing library                  : VirtualDub build 32839/release

Video
ID                               : 0
Format                           : MPEG-4 Visual
Format profile                   : Advanced Simple@L5
Format settings, BVOP            : Yes
Format settings, QPel            : No
Format settings, GMC             : No warppoints
Format settings, Matrix          : Custom
Codec ID                         : XVID
Codec ID/Hint                    : XviD
Duration                         : 2h 3mn
Bit rate                         : 555 Kbps
Width                            : 608 pixels
Height                           : 336 pixels
Display aspect ratio             : 16:9
Frame rate                       : 25.000 fps
Color space                      : YUV
Chroma subsampling               : 4:2:0
Bit depth                        : 8 bits
Scan type                        : Progressive
Bits/(Pixel*Frame)               : 0.109
Stream size                      : 493 MiB (70%)
Writing library                  : XviD 1.2.1 (UTC 2008-12-04)

Audio
ID                               : 1
Format                           : AC-3
Format/Info                      : Audio Coding 3
Mode extension                   : CM (complete main)
Codec ID                         : 2000
Duration                         : 2h 3mn
Bit rate mode                    : Constant
Bit rate                         : 224 Kbps
Channel(s)                       : 2 channels
Channel positions                : Front: L R
Sampling rate                    : 48.0 KHz
Bit depth                        : 16 bits
Stream size                      : 199 MiB (28%)
Alignment                        : Aligned on interleaves
Interleave, duration             : 40 ms (1.00 video frame)
Interleave, preload duration     : 512 ms




[url]http://www.cdwow.com/DVD/ben-hollys-little-kingdom-hollys-magic-wand-and-other-adventures/dp/15591247[/url]




[IMG]http://leetleech.org/images/89524873606771859129.png[/IMG]



Description
As she learns how to fly, Holly, a young Fairy Princess discovers her magic doesn't always go quite according to plan. Although Holly's best friend, Ben the Elf, can't fly or do magic he, like many of the elves, is very nimble with his fingers especially when making toys. They live in the Little Kingdom a tiny land where flowers and grass rise above the tallest towers.




[img]http://leetleech.org/images/95521316153253938506.png[/img]




[img]http://img857.imageshack.us/img857/6708/vlcsnap2011031414h09m46.png[/img]

[img]http://img845.imageshack.us/img845/6852/vlcsnap2011031414h10m08.png[/img]

[img]http://img848.imageshack.us/img848/4724/vlcsnap2011031414h10m04.png[/img]



Not seen too many Ben and holly episodes floating around the net .I have to watch this everyday so now maybe you do ........

REMEMBER THIS IS FOR THE KIDS .....................NOT YOU !



Greetz to Imagine ,Flawl3ss,DiLLoN,BDK,NOiR,TOXiCiNK,THC,Ez,Rx,





[img]http://img411.imageshack.us/img411/6898/sig1n.jpg[/img]





